# xmcd
#
# Track frame offsets:
#   150
#   5043
#   19476
#   36570
#   57122
#   74063
#   90805
#   108212
#   130360
#   142598
#   158508
#   168294
#   186771
#   201657
#
# Disc length: 2694 seconds
#
# Revision: 0
# Processed by: cddbd v1.5.2PL0 Copyright (c) Steve Scherf et al.
# Submitted via: GXTranscoder 2.0.1939
#
DISCID=be0a840e
DTITLE=Gorillaz - Demon Days
DYEAR=2005
DGENRE=UnClassifiable
TTITLE0=Intro
TTITLE1=Last Living Souls
TTITLE2=Kids With Guns - Feat. Neneh Cherry
TTITLE3=O Green World
TTITLE4=Dirty Harry - Feat. Bootie Brown and San Fernandez Y
TTITLE5=Feel Good Inc - Feat. De La Soul
TTITLE6=El Manana
TTITLE7=Every Planet We Reach Is Dead
TTITLE8=November Has Come - Feat. MF Doom
TTITLE9=All Alone - Feat. Roots Manuva
TTITLE10=White Light
TTITLE11=DARE - Feat. Shaun Ryder
TTITLE12=Fire Coming Out Of The Monkey's Head - Feat. Denni
TTITLE13=Don't Get Lost In Heaven
EXTD=
EXTT0=
EXTT1=
EXTT2=
EXTT3=
EXTT4=
EXTT5=
EXTT6=
EXTT7=
EXTT8=
EXTT9=
EXTT10=
EXTT11=
EXTT12=
EXTT13=
PLAYORDER=
